<svg width="18" height="18" viewBox="0 0 18 18" fill="none" xmlns="http://www.w3.org/2000/svg">
<path d="M9.00098 0C4.03883 0 0.000976562 4.03785 0.000976562 9C0.000976562 13.9621 4.03883 18 9.00098 18C13.9631 18 18.001 13.9621 18.001 9C18.001 4.03785 13.9631 0 9.00098 0ZM12.9592 9.66465L10.5598 12.4902C10.3573 12.7291 10.0675 12.8525 9.77723 12.8525C9.54278 12.8525 9.30608 12.7719 9.11258 12.6081C8.68058 12.2422 8.62748 11.5938 8.99423 11.1613L9.95813 10.0269H5.82443C5.25743 10.0269 4.79798 9.56745 4.79798 9.00045C4.79798 8.43345 5.25743 7.974 5.82443 7.974H9.95813L8.99423 6.83955C8.62748 6.4071 8.68058 5.75955 9.11258 5.3919C9.54458 5.02515 10.1926 5.07825 10.5598 5.5107L12.9592 8.33625C13.285 8.71875 13.285 9.28125 12.9592 9.66465Z" fill="#F7D100"/>
</svg>
