<svg width="63" height="53" viewBox="0 0 63 53" fill="none" xmlns="http://www.w3.org/2000/svg">
<g filter="url(#filter0_d_330_2288)">
<path d="M57.4388 8.12261C57.3353 8.11905 55.2112 8.04733 52.093 8.11624V1.72309C52.093 0.780644 51.2882 0.0331833 50.3407 0.111046C44.1234 0.630095 36.2132 3.3774 31.5 8.38833C26.7868 3.3774 18.8766 0.630095 12.6593 0.111046C11.7135 0.0340461 10.907 0.778163 10.907 1.72309V8.28911C9.13538 8.22225 7.45961 8.17513 5.66564 8.12239C4.76083 8.09381 4 8.82261 4 9.73928V39.1988C4 40.0501 4.65968 40.7557 5.50905 40.8128C11.9438 41.2459 22.7227 41.2946 30.8655 44.7676C31.5911 45.0775 32.2426 44.7215 32.1348 44.7676C40.2774 41.2947 51.0542 41.2461 57.4912 40.8128C58.3404 40.7557 59.0002 40.0501 59.0002 39.1988V9.73928C59 8.8678 58.3097 8.15302 57.4388 8.12261ZM48.8577 3.54251V31.2677C44.1928 32.3112 38.281 34.5379 33.1177 39.2594C33.1177 37.8353 33.1177 12.2237 33.1177 11.4534C36.6571 7.03727 43.3602 4.37549 48.8577 3.54251ZM14.1423 3.54251C19.6398 4.37549 26.3429 7.03727 29.8824 11.4534V39.2594C24.719 34.5379 18.8072 32.3112 14.1423 31.2677V3.54251ZM7.23529 37.6766V11.4052C8.39364 11.4395 9.63254 11.4783 10.907 11.5269V32.5862C10.907 33.3645 11.4613 34.0325 12.2263 34.176C15.92 34.8693 20.7233 36.3742 25.2001 39.6144C18.8131 38.1819 12.1277 37.9517 7.23529 37.6766ZM55.7647 37.6766C50.8803 37.9513 44.1894 38.1813 37.7998 39.6144C42.2766 36.3742 47.08 34.8693 50.7736 34.176C51.5386 34.0325 52.0929 33.3645 52.0929 32.5862V11.3526C53.5818 11.3193 54.8499 11.3189 55.7646 11.3272V37.6766H55.7647Z" fill="white"/>
<path d="M25.6876 15.1791C24.4346 14.3062 22.2746 13.2348 19.9695 12.8453C19.089 12.6958 18.2538 13.2899 18.1049 14.1708C17.9561 15.0516 18.5495 15.8865 19.4305 16.0353C21.2102 16.3361 22.9172 17.192 23.8382 17.8337C24.5709 18.3442 25.5793 18.1643 26.0901 17.4311C26.6008 16.6981 26.4206 15.6898 25.6876 15.1791Z" fill="white"/>
<path d="M25.5256 24.29C24.3728 23.5862 22.1182 22.3509 19.9695 21.9878C19.089 21.8386 18.2538 22.4323 18.1049 23.3133C17.9561 24.1943 18.5495 25.029 19.4305 25.1778C21.1043 25.4607 23.0713 26.582 23.8392 27.0512C24.6027 27.5171 25.5978 27.2754 26.063 26.5138C26.5286 25.7513 26.288 24.7558 25.5256 24.29Z" fill="white"/>
<path d="M39.1616 17.8338C40.0826 17.1921 41.7895 16.3361 43.5692 16.0354C44.4501 15.8865 45.0436 15.0517 44.8948 14.1709C44.746 13.2899 43.9109 12.6956 43.0302 12.8454C40.7251 13.2348 38.5651 14.3063 37.3122 15.1792C36.5792 15.6898 36.399 16.6982 36.9096 17.4312C37.4206 18.1646 38.4292 18.3441 39.1616 17.8338Z" fill="white"/>
<path d="M43.03 21.9879C40.8814 22.3509 38.6267 23.5862 37.4739 24.2902C36.7115 24.7559 36.4709 25.7515 36.9366 26.5139C37.4022 27.2763 38.3977 27.5169 39.1603 27.0513C39.9282 26.5822 41.8952 25.4608 43.569 25.1779C44.4499 25.0291 45.0434 24.1944 44.8946 23.3134C44.7457 22.4325 43.9107 21.8382 43.03 21.9879Z" fill="white"/>
</g>
<defs>
<filter id="filter0_d_330_2288" x="0" y="0.105469" width="63" height="52.791" filterUnits="userSpaceOnUse" color-interpolation-filters="sRGB">
<feFlood flood-opacity="0" result="BackgroundImageFix"/>
<feColorMatrix in="SourceAlpha" type="matrix" values="0 0 0 0 0 0 0 0 0 0 0 0 0 0 0 0 0 0 127 0" result="hardAlpha"/>
<feOffset dy="4"/>
<feGaussianBlur stdDeviation="2"/>
<feComposite in2="hardAlpha" operator="out"/>
<feColorMatrix type="matrix" values="0 0 0 0 0 0 0 0 0 0 0 0 0 0 0 0 0 0 0.25 0"/>
<feBlend mode="normal" in2="BackgroundImageFix" result="effect1_dropShadow_330_2288"/>
<feBlend mode="normal" in="SourceGraphic" in2="effect1_dropShadow_330_2288" result="shape"/>
</filter>
</defs>
</svg>
