<svg width="63" height="63" viewBox="0 0 63 63" fill="none" xmlns="http://www.w3.org/2000/svg">
<g filter="url(#filter0_d_330_2302)">
<path fill-rule="evenodd" clip-rule="evenodd" d="M26.6756 1.43165C26.7671 0.616385 27.4565 0 28.2769 0H34.7221C35.5424 0 36.2318 0.616307 36.3234 1.43151L36.8642 6.24807C38.9563 6.77475 40.9284 7.60203 42.7318 8.68085L46.5217 5.65564C47.1629 5.14384 48.0862 5.19548 48.6663 5.77558L53.2238 10.3331C53.8038 10.9131 53.8555 11.8364 53.3438 12.4776L50.318 16.2689C51.3963 18.0719 52.2237 20.0434 52.7505 22.1352L57.5683 22.6756C58.3836 22.7671 59 23.4565 59 24.2769V30.7221C59 31.5424 58.3837 32.2318 57.5685 32.3234L52.7519 32.8642C52.2252 34.9562 51.398 36.9284 50.3192 38.7318L53.3444 42.5217C53.8562 43.1629 53.8045 44.0862 53.2244 44.6663L48.6669 49.2238C48.0869 49.8038 47.1636 49.8555 46.5224 49.3438L42.7311 46.318C40.9279 47.3964 38.9562 48.2239 36.8643 48.7506L36.3234 53.5685C36.2319 54.3837 35.5425 55 34.7221 55H28.2769C27.4565 55 26.7671 54.3836 26.6756 53.5683L26.1352 48.7517C24.0432 48.225 22.0711 47.3976 20.2677 46.3188L16.4774 49.3438C15.8363 49.8555 14.913 49.8038 14.333 49.2238L9.77547 44.6663C9.19537 44.0862 9.14373 43.1629 9.65553 42.5217L12.6816 38.7307C11.6033 36.9277 10.7759 34.956 10.2493 32.8643L5.43155 32.3234C4.61633 32.2319 4 31.5425 4 30.7221V24.2769C4 23.4565 4.61638 22.7671 5.43165 22.6756L10.2479 22.1352C10.7745 20.043 11.6017 18.0707 12.6805 16.2669L9.65609 12.4775C9.14438 11.8363 9.19605 10.913 9.77612 10.333L14.3336 5.77547C14.9137 5.19537 15.837 5.14373 16.4782 5.65553L20.2674 8.6802C22.071 7.60156 24.0433 6.7745 26.1352 6.24794L26.6756 1.43165ZM29.7176 3.22265L29.2096 7.74969C29.1311 8.44969 28.6069 9.01755 27.9154 9.1518C25.4182 9.63663 23.0981 10.6188 21.0618 11.9925C20.4779 12.3863 19.7059 12.3554 19.1554 11.916L15.5937 9.07291L13.0735 11.5931L15.9163 15.1551C16.3556 15.7055 16.3865 16.4775 15.9927 17.0613C14.6189 19.0979 13.6366 21.4181 13.1518 23.9154C13.0176 24.6069 12.4497 25.1311 11.7497 25.2096L7.22265 25.7176V29.2816L11.7511 29.79C12.451 29.8686 13.0188 30.3927 13.1531 31.0841C13.6379 33.5808 14.6205 35.9002 15.9939 37.9365C16.3877 38.5204 16.3567 39.2923 15.9174 39.8427L13.0729 43.4062L15.5931 45.9264L19.156 43.083C19.7064 42.6436 20.4784 42.6127 21.0623 43.0066C23.0986 44.3804 25.4185 45.363 27.9155 45.848C28.607 45.9823 29.1311 46.5501 29.2096 47.2501L29.7176 51.7774H33.2816L33.79 47.2488C33.8686 46.5489 34.3927 45.9811 35.0841 45.8468C37.5808 45.362 39.9003 44.3792 41.9369 43.0057C42.5207 42.612 43.2926 42.6429 43.843 43.0822L47.4068 45.9264L49.927 43.4062L47.0833 39.8437C46.6438 39.2932 46.6129 38.5211 47.0069 37.9372C48.3807 35.9012 49.3632 33.5812 49.8481 31.0841C49.9824 30.3927 50.5501 29.8686 51.2501 29.79L55.7774 29.2816V25.7176L51.2489 25.2096C50.5488 25.1311 49.981 24.6069 49.8467 23.9155C49.3619 21.419 48.3791 19.0996 47.0057 17.0631C46.612 16.4793 46.6429 15.7074 47.0822 15.157L49.9264 11.5932L47.4062 9.07302L43.8437 11.9167C43.2932 12.3562 42.5211 12.3871 41.9372 11.9931C39.9012 10.6193 37.5813 9.63681 35.0841 9.1519C34.3927 9.01764 33.8686 8.44987 33.79 7.74993L33.2816 3.22265H29.7176Z" fill="white"/>
<path fill-rule="evenodd" clip-rule="evenodd" d="M20.9728 26.3603C21.8627 26.3603 22.5841 27.0817 22.5841 27.9716V35.1891C22.5922 35.2207 22.6404 35.346 22.8782 35.5601C23.2115 35.8601 23.7844 36.2042 24.6296 36.5261C26.3089 37.1656 28.7376 37.5949 31.5001 37.5949C34.2626 37.5949 36.6912 37.1656 38.3705 36.5261C39.2157 36.2042 39.7886 35.8601 40.1219 35.5601C40.3597 35.3459 40.4079 35.2207 40.416 35.1891V27.9716C40.416 27.0817 41.1374 26.3603 42.0273 26.3603C42.9173 26.3603 43.6387 27.0817 43.6387 27.9716V35.197C43.6387 36.367 43.01 37.2961 42.2782 37.955C41.5461 38.6142 40.5773 39.1341 39.5175 39.5377C37.3866 40.3492 34.5516 40.8175 31.5001 40.8175C28.4486 40.8175 25.6135 40.3492 23.4827 39.5377C22.4228 39.1341 21.4541 38.6142 20.7219 37.955C19.9901 37.2961 19.3614 36.367 19.3614 35.197V27.9716C19.3614 27.0817 20.0829 26.3603 20.9728 26.3603ZM40.4174 35.1812C40.4174 35.1812 40.4174 35.1834 40.4164 35.1878C40.4167 35.1834 40.4174 35.1812 40.4174 35.1812ZM22.5827 35.1812C22.5827 35.1812 22.5834 35.1834 22.5838 35.1878C22.5827 35.1834 22.5827 35.1812 22.5827 35.1812Z" fill="white"/>
<path fill-rule="evenodd" clip-rule="evenodd" d="M20.9728 18.7399C21.8627 18.7399 22.5841 19.4613 22.5841 20.3512V27.3015C22.5922 27.333 22.6404 27.4583 22.8782 27.6724C23.2115 27.9725 23.7844 28.3165 24.6296 28.6384C26.3089 29.278 28.7376 29.7072 31.5001 29.7072C34.2626 29.7072 36.6912 29.278 38.3705 28.6384C39.2157 28.3165 39.7886 27.9725 40.1219 27.6724C40.3597 27.4583 40.4079 27.333 40.416 27.3015V20.3512C40.416 19.4613 41.1374 18.7399 42.0273 18.7399C42.9173 18.7399 43.6387 19.4613 43.6387 20.3512V27.3093C43.6387 28.4793 43.01 29.4084 42.2782 30.0673C41.5461 30.7266 40.5773 31.2464 39.5175 31.6501C37.3866 32.4616 34.5516 32.9299 31.5001 32.9299C28.4486 32.9299 25.6135 32.4616 23.4827 31.6501C22.4228 31.2464 21.4541 30.7266 20.7219 30.0673C19.9901 29.4084 19.3614 28.4793 19.3614 27.3093V20.3512C19.3614 19.4613 20.0829 18.7399 20.9728 18.7399ZM40.4174 27.2935C40.4174 27.2935 40.4174 27.2957 40.4164 27.3001C40.4167 27.2957 40.4174 27.2935 40.4174 27.2935ZM22.5827 27.2935C22.5827 27.2935 22.5834 27.2957 22.5838 27.3001C22.5827 27.2957 22.5827 27.2935 22.5827 27.2935Z" fill="white"/>
<path fill-rule="evenodd" clip-rule="evenodd" d="M22.5826 19.8188C22.5826 19.8188 22.5826 19.8166 22.5836 19.8122C22.5833 19.8166 22.5826 19.8188 22.5826 19.8188ZM22.5863 19.803C22.5996 19.7616 22.6567 19.6393 22.8781 19.4399C23.2114 19.1398 23.7843 18.7958 24.6295 18.4739C26.3088 17.8344 28.7374 17.4051 31.5 17.4051C34.2626 17.4051 36.6912 17.8344 38.3705 18.4739C39.2157 18.7958 39.7886 19.1398 40.1219 19.4399C40.3433 19.6393 40.4004 19.7616 40.4137 19.803C40.4004 19.8444 40.3433 19.9667 40.1219 20.1661C39.7886 20.4662 39.2157 20.8102 38.3705 21.1321C36.6912 21.7717 34.2626 22.2009 31.5 22.2009C28.7374 22.2009 26.3088 21.7717 24.6295 21.1321C23.7843 20.8102 23.2114 20.4662 22.8781 20.1661C22.6567 19.9667 22.5996 19.8444 22.5863 19.803ZM40.4174 19.8188C40.4174 19.8188 40.4167 19.8166 40.4164 19.8122C40.4174 19.8166 40.4174 19.8188 40.4174 19.8188ZM40.4164 19.7938C40.4167 19.7894 40.4174 19.7872 40.4174 19.7872C40.4174 19.7872 40.4174 19.7894 40.4164 19.7938ZM22.5836 19.7938C22.5826 19.7894 22.5826 19.7872 22.5826 19.7872C22.5826 19.7872 22.5833 19.7894 22.5836 19.7938ZM23.4826 15.4623C25.6134 14.6507 28.4485 14.1825 31.5 14.1825C34.5515 14.1825 37.3866 14.6507 39.5174 15.4623C40.5773 15.8659 41.5461 16.3857 42.2782 17.045C43.01 17.7039 43.6387 18.633 43.6387 19.803C43.6387 20.973 43.01 21.9021 42.2782 22.561C41.5461 23.2203 40.5773 23.7401 39.5174 24.1438C37.3866 24.9553 34.5515 25.4235 31.5 25.4235C28.4485 25.4235 25.6134 24.9553 23.4826 24.1438C22.4227 23.7401 21.4539 23.2203 20.7218 22.561C19.99 21.9021 19.3613 20.973 19.3613 19.803C19.3613 18.633 19.99 17.7039 20.7218 17.045C21.4539 16.3857 22.4227 15.8659 23.4826 15.4623Z" fill="white"/>
</g>
<defs>
<filter id="filter0_d_330_2302" x="0" y="0" width="63" height="63" filterUnits="userSpaceOnUse" color-interpolation-filters="sRGB">
<feFlood flood-opacity="0" result="BackgroundImageFix"/>
<feColorMatrix in="SourceAlpha" type="matrix" values="0 0 0 0 0 0 0 0 0 0 0 0 0 0 0 0 0 0 127 0" result="hardAlpha"/>
<feOffset dy="4"/>
<feGaussianBlur stdDeviation="2"/>
<feComposite in2="hardAlpha" operator="out"/>
<feColorMatrix type="matrix" values="0 0 0 0 0 0 0 0 0 0 0 0 0 0 0 0 0 0 0.25 0"/>
<feBlend mode="normal" in2="BackgroundImageFix" result="effect1_dropShadow_330_2302"/>
<feBlend mode="normal" in="SourceGraphic" in2="effect1_dropShadow_330_2302" result="shape"/>
</filter>
</defs>
</svg>
