<svg width="63" height="63" viewBox="0 0 63 63" fill="none" xmlns="http://www.w3.org/2000/svg">
<g filter="url(#filter0_d_330_2312)">
<path d="M43.6312 4.3202C39.0907 0.630471 33.1559 -0.789646 27.3475 0.424006C20.0888 1.9407 14.1669 7.88832 12.6114 15.2241C11.2999 21.4096 12.9161 27.6197 17.0456 32.2619C19.0937 34.5644 20.2216 37.4447 20.2216 40.3805V43.6032C20.2216 45.7038 21.5688 47.4949 23.4443 48.16V50.1559C23.4443 52.8214 25.6128 54.9899 28.2783 54.9899H34.7236C37.389 54.9899 39.5576 52.8214 39.5576 50.1559V48.16C41.433 47.4949 42.7802 45.7038 42.7802 43.6032V40.3805C42.7802 37.4823 43.9417 34.5612 46.0503 32.1554C49.137 28.634 50.8369 24.1158 50.8369 19.4333C50.8369 13.5501 48.2105 8.04151 43.6312 4.3202ZM36.3349 50.1559C36.3349 51.0444 35.6121 51.7673 34.7236 51.7673H28.2783C27.3898 51.7673 26.6669 51.0444 26.6669 50.1559V48.4372H36.3349V50.1559ZM39.5576 43.6032C39.5576 44.4917 38.8347 45.2145 37.9462 45.2145H25.0556C24.1671 45.2145 23.4443 44.4917 23.4443 43.6032V41.9919H39.5576V43.6032ZM31.5009 27.3478C32.589 27.3478 33.6769 27.1738 34.7236 26.8284V38.7693H28.2783V26.8284C29.325 27.1738 30.4127 27.3478 31.5009 27.3478ZM28.8073 23.5895L31.5009 18.2024L34.1945 23.5894C32.4678 24.2999 30.534 24.2999 28.8073 23.5895ZM43.6269 30.0312C41.3864 32.5873 40.0053 35.6406 39.6494 38.7692H37.9462V24.2785C37.9462 24.2764 37.9462 24.2743 37.9462 24.2722C37.9462 24.0523 37.8986 23.8101 37.7914 23.5826C37.7858 23.5707 37.7819 23.5584 37.7761 23.5468L32.9421 13.8788C32.6691 13.3329 32.1112 12.9881 31.5008 12.9881C30.8904 12.9881 30.3326 13.3329 30.0595 13.8788L25.2255 23.5468C25.1189 23.7605 25.0555 24.0205 25.0555 24.271C25.0555 24.2739 25.0555 24.2767 25.0555 24.2796V38.7693H23.3564C23.0109 35.619 21.6555 32.5957 19.4534 30.1201C16.012 26.2512 14.6672 21.0655 15.764 15.8925C17.0587 9.78668 21.9786 4.83808 28.0066 3.57856C32.8608 2.56428 37.8149 3.74624 41.5988 6.82119C45.4217 9.92783 47.6142 14.5247 47.6142 19.4333C47.6142 23.334 46.1982 27.0977 43.6269 30.0312Z" fill="white"/>
<path d="M8.83398 19.4336H5.61133C4.72145 19.4336 4 20.155 4 21.0449C4 21.9348 4.72145 22.6562 5.61133 22.6562H8.83398C9.72387 22.6562 10.4453 21.9348 10.4453 21.0449C10.4453 20.155 9.72387 19.4336 8.83398 19.4336Z" fill="white"/>
<path d="M9.50209 11.3757L7.22335 9.09696C6.59408 8.46768 5.57389 8.46768 4.94461 9.09696C4.31534 9.72624 4.31534 10.7464 4.94461 11.3757L7.22335 13.6544C7.85274 14.2838 8.87292 14.2836 9.50209 13.6544C10.1314 13.0252 10.1314 12.005 9.50209 11.3757Z" fill="white"/>
<path d="M9.50201 28.4329C8.87274 27.8036 7.85255 27.8036 7.22327 28.4329L4.94453 30.7116C4.31536 31.3409 4.31536 32.3611 4.94453 32.9904C5.5737 33.6195 6.59389 33.6197 7.22327 32.9904L9.50201 30.7116C10.1312 30.0824 10.1312 29.0622 9.50201 28.4329Z" fill="white"/>
<path d="M57.3887 19.4336H54.166C53.2761 19.4336 52.5547 20.155 52.5547 21.0449C52.5547 21.9348 53.2761 22.6562 54.166 22.6562H57.3887C58.2786 22.6562 59 21.9348 59 21.0449C59 20.155 58.2786 19.4336 57.3887 19.4336Z" fill="white"/>
<path d="M58.0568 9.09696C57.4276 8.46768 56.4073 8.46768 55.778 9.09696L53.4993 11.3757C52.87 12.005 52.87 13.0252 53.4993 13.6544C54.1285 14.2837 55.1488 14.2837 55.778 13.6544L58.0568 11.3757C58.6861 10.7464 58.6861 9.72624 58.0568 9.09696Z" fill="white"/>
<path d="M58.0568 30.7116L55.7781 28.4329C55.149 27.8036 54.1287 27.8036 53.4993 28.4329C52.87 29.0622 52.8701 30.0824 53.4993 30.7116L55.7781 32.9904C56.4071 33.6197 57.4275 33.6197 58.0568 32.9904C58.6861 32.3611 58.6861 31.3409 58.0568 30.7116Z" fill="white"/>
</g>
<defs>
<filter id="filter0_d_330_2312" x="0" y="0" width="63" height="62.9902" filterUnits="userSpaceOnUse" color-interpolation-filters="sRGB">
<feFlood flood-opacity="0" result="BackgroundImageFix"/>
<feColorMatrix in="SourceAlpha" type="matrix" values="0 0 0 0 0 0 0 0 0 0 0 0 0 0 0 0 0 0 127 0" result="hardAlpha"/>
<feOffset dy="4"/>
<feGaussianBlur stdDeviation="2"/>
<feComposite in2="hardAlpha" operator="out"/>
<feColorMatrix type="matrix" values="0 0 0 0 0 0 0 0 0 0 0 0 0 0 0 0 0 0 0.25 0"/>
<feBlend mode="normal" in2="BackgroundImageFix" result="effect1_dropShadow_330_2312"/>
<feBlend mode="normal" in="SourceGraphic" in2="effect1_dropShadow_330_2312" result="shape"/>
</filter>
</defs>
</svg>
