<svg width="30" height="37" viewBox="0 0 30 37" fill="none" xmlns="http://www.w3.org/2000/svg">
<path fill-rule="evenodd" clip-rule="evenodd" d="M18.5129 22.0821C17.1657 22.0821 16.0721 23.1755 16.0721 24.5243V34.4497H25.9261V31.8395C25.9261 31.2474 26.406 30.7674 26.9981 30.7674C27.5902 30.7674 28.0702 31.2474 28.0702 31.8395V35.5218C28.0702 36.1139 27.5902 36.5939 26.9981 36.5939H15.0001C14.408 36.5939 13.928 36.1139 13.928 35.5218V24.5243C13.928 21.9922 15.9806 19.9379 18.5129 19.9379H26.9981C27.5902 19.9379 28.0702 20.4179 28.0702 21.01V26.8365C28.0702 27.4286 27.5902 27.9086 26.9981 27.9086C26.406 27.9086 25.9261 27.4286 25.9261 26.8365V22.0821H18.5129Z" fill="white"/>
<path fill-rule="evenodd" clip-rule="evenodd" d="M1.9299 21.01C1.9299 20.4179 2.40989 19.9379 3.00198 19.9379H11.4872C14.0195 19.9379 16.0721 21.9922 16.0721 24.5243V35.5218C16.0721 36.1139 15.5922 36.5939 15.0001 36.5939H3.00198C2.40989 36.5939 1.9299 36.1139 1.9299 35.5218V31.8352C1.9299 31.2432 2.40989 30.7632 3.00198 30.7632C3.59408 30.7632 4.07407 31.2432 4.07407 31.8352V34.4497H13.928V24.5243C13.928 23.1755 12.8344 22.0821 11.4872 22.0821H4.07407V26.8408C4.07407 27.4328 3.59408 27.9128 3.00198 27.9128C2.40989 27.9128 1.9299 27.4328 1.9299 26.8408V21.01Z" fill="white"/>
<path fill-rule="evenodd" clip-rule="evenodd" d="M27.1412 27.9086C26.3518 27.9086 25.7118 28.5486 25.7118 29.3381C25.7118 30.1275 26.3518 30.7675 27.1412 30.7675H27.3641C27.6358 30.7675 27.8559 30.5473 27.8559 30.2757V28.4005C27.8559 28.1288 27.6357 27.9086 27.3641 27.9086H27.1412ZM23.5676 29.3381C23.5676 27.3644 25.1676 25.7644 27.1412 25.7644H27.3641C28.8199 25.7644 30.0001 26.9447 30.0001 28.4005V30.2757C30.0001 31.7315 28.8199 32.9117 27.3641 32.9117H27.1412C25.1676 32.9117 23.5676 31.3117 23.5676 29.3381Z" fill="white"/>
<path fill-rule="evenodd" clip-rule="evenodd" d="M0 28.4005C0 26.9447 1.1802 25.7644 2.63605 25.7644H2.8589C4.83256 25.7644 6.43252 27.3644 6.43252 29.3381C6.43252 31.3117 4.83256 32.9117 2.8589 32.9117H2.63605C1.18024 32.9117 0 31.7315 0 30.2757V28.4005ZM2.63605 27.9086C2.3644 27.9086 2.14417 28.1288 2.14417 28.4005V30.2757C2.14417 30.5473 2.36437 30.7675 2.63605 30.7675H2.8589C3.64836 30.7675 4.28835 30.1275 4.28835 29.3381C4.28835 28.5486 3.64836 27.9086 2.8589 27.9086H2.63605Z" fill="white"/>
<path fill-rule="evenodd" clip-rule="evenodd" d="M12.0073 15.8297C12.018 16.4217 11.5467 16.9103 10.9547 16.9209C8.45671 16.9658 6.39217 18.7962 5.98738 21.1889C5.88861 21.7727 5.33528 22.1659 4.75148 22.0671C4.16768 21.9683 3.77448 21.415 3.87325 20.8312C4.44763 17.4361 7.37186 14.8408 10.9162 14.7771C11.5082 14.7665 11.9967 15.2377 12.0073 15.8297Z" fill="white"/>
<path fill-rule="evenodd" clip-rule="evenodd" d="M17.9928 15.8297C18.0034 15.2377 18.492 14.7665 19.084 14.7771C22.6283 14.8408 25.5525 17.4361 26.1269 20.8312C26.2256 21.415 25.8324 21.9683 25.2486 22.0671C24.6648 22.1659 24.1115 21.7727 24.0127 21.1889C23.608 18.7962 21.5434 16.9658 19.0454 16.9209C18.4534 16.9103 17.9821 16.4217 17.9928 15.8297Z" fill="white"/>
<path fill-rule="evenodd" clip-rule="evenodd" d="M15.0001 2.14417C11.9468 2.14417 9.4711 4.61985 9.4711 7.67314V10.6473C9.4711 12.1739 10.0886 13.5553 11.09 14.5568C12.0927 15.5588 13.4728 16.1763 15.0001 16.1763C18.0533 16.1763 20.529 13.7006 20.529 10.6473V7.67314C20.529 4.61985 18.0533 2.14417 15.0001 2.14417ZM7.32692 7.67314C7.32692 3.43566 10.7626 0 15.0001 0C19.2375 0 22.6732 3.43566 22.6732 7.67314V10.6473C22.6732 14.8848 19.2375 18.3205 15.0001 18.3205C12.8811 18.3205 10.9623 17.4605 9.57439 16.0735L9.57412 16.0733C8.18664 14.6858 7.32692 12.7652 7.32692 10.6473V7.67314Z" fill="white"/>
<path fill-rule="evenodd" clip-rule="evenodd" d="M15.4477 9.90314C15.9857 10.1503 16.2214 10.7869 15.9742 11.3249L15.0001 10.8773C15.9742 11.3249 15.974 11.3254 15.9738 11.3259L15.9733 11.3269L15.9724 11.3289L15.9704 11.3333C15.9689 11.3363 15.9673 11.3397 15.9656 11.3433C15.9621 11.3505 15.9581 11.3588 15.9534 11.3682C15.9441 11.3868 15.9324 11.4096 15.918 11.4361C15.8893 11.4891 15.85 11.5571 15.7989 11.6365C15.6968 11.7951 15.5463 12.0011 15.3367 12.2244C14.9148 12.6739 14.2586 13.1879 13.2971 13.5244C12.7382 13.72 12.1266 13.4255 11.931 12.8666C11.7355 12.3077 12.0299 11.6961 12.5888 11.5006C13.1833 11.2925 13.5556 10.9889 13.7733 10.757C13.8835 10.6396 13.9555 10.5388 13.996 10.476C14.0161 10.4446 14.0282 10.4232 14.033 10.4143C14.0334 10.4135 14.0338 10.4128 14.0341 10.4122C14.287 9.8866 14.9155 9.65863 15.4477 9.90314Z" fill="white"/>
<path fill-rule="evenodd" clip-rule="evenodd" d="M15.966 10.4122C15.7131 9.8866 15.0846 9.65863 14.5525 9.90314C14.0144 10.1503 13.7787 10.7869 14.0259 11.3249L15.0001 10.8773C14.0259 11.3249 14.0261 11.3254 14.0263 11.3259L14.0268 11.3269L14.0277 11.3289L14.0298 11.3333C14.0312 11.3364 14.0328 11.3397 14.0345 11.3433C14.038 11.3505 14.042 11.3588 14.0467 11.3682C14.056 11.3868 14.0677 11.4096 14.0821 11.4361C14.1108 11.4891 14.1501 11.5571 14.2012 11.6365C14.3033 11.7951 14.4538 12.0011 14.6634 12.2244C15.0853 12.6739 15.7415 13.1879 16.7031 13.5244C17.2619 13.72 17.8735 13.4255 18.0691 12.8666C18.2647 12.3077 17.9702 11.6961 17.4113 11.5006C16.8168 11.2925 16.4445 10.9889 16.2268 10.757C16.1166 10.6396 16.0446 10.5388 16.0041 10.476C15.984 10.4446 15.9719 10.4232 15.9672 10.4143C15.9667 10.4135 15.9663 10.4128 15.966 10.4122Z" fill="white"/>
<path fill-rule="evenodd" clip-rule="evenodd" d="M10.6915 1.47331C11.2605 1.30975 11.8544 1.63848 12.018 2.20754C12.3905 3.50363 13.5861 4.45059 15.0001 4.45059C16.4141 4.45059 17.6096 3.50363 17.9821 2.20754C18.1457 1.63848 18.7396 1.30975 19.3087 1.47331C19.8777 1.63686 20.2064 2.23076 20.0429 2.79982C19.4134 4.99015 17.3955 6.59476 15.0001 6.59476C12.6046 6.59476 10.5868 4.99015 9.95722 2.79982C9.79367 2.23076 10.1224 1.63686 10.6915 1.47331Z" fill="white"/>
</svg>
