<svg width="40" height="40" viewBox="0 0 40 40" fill="none" xmlns="http://www.w3.org/2000/svg">
<path d="M36.6237 28.3828V18.0016L36.92 17.8291C37.5487 17.4641 37.9238 16.8128 37.9238 16.0866C37.9238 15.3603 37.5487 14.7078 36.92 14.3428L21.7237 5.51531C20.445 4.77031 18.8538 4.77156 17.575 5.51531L2.3775 14.3441C1.75 14.7091 1.375 15.3603 1.375 16.0866C1.375 16.8128 1.75 17.4641 2.3775 17.8303L6.985 20.5078V26.7316C6.985 28.1766 7.7625 29.5203 9.0125 30.2416L15.355 33.8978C16.6788 34.6603 18.1637 35.0428 19.6488 35.0428C21.1337 35.0428 22.6175 34.6616 23.9425 33.8978L30.2837 30.2416C31.535 29.5216 32.3125 28.1766 32.3125 26.7316V20.5066L34.3737 19.3091V28.3828C33.845 28.7428 33.4975 29.3491 33.4975 30.0378C33.4975 31.1428 34.3937 32.0391 35.4987 32.0391C36.6037 32.0391 37.5 31.1428 37.5 30.0378C37.5 29.3503 37.1525 28.7441 36.6237 28.3828ZM30.0638 26.7303H30.0625C30.0625 27.3728 29.7188 27.9703 29.1613 28.2903L22.82 31.9466C20.865 33.0728 18.4338 33.0728 16.48 31.9466L10.1375 28.2903C9.58125 27.9703 9.23625 27.3728 9.23625 26.7303V21.8141L17.575 26.6591C18.215 27.0303 18.9325 27.2166 19.65 27.2166C20.3675 27.2166 21.085 27.0316 21.725 26.6591L30.0638 21.8141V26.7303ZM20.5938 24.7141C20.0112 25.0528 19.2875 25.0528 18.705 24.7141L3.85625 16.0866L18.7038 7.45906C19.2862 7.12031 20.01 7.12031 20.5925 7.45906L35.4412 16.0853L20.5938 24.7141Z" fill="white"/>
</svg>
