<svg width="36" height="36" viewBox="0 0 36 36" fill="none" xmlns="http://www.w3.org/2000/svg">
<g clip-path="url(#clip0_330_630)">
<path d="M25.9398 2.8307C22.9679 0.415602 19.0832 -0.51393 15.2814 0.280461C10.5303 1.2732 6.6541 5.16619 5.63597 9.96776C4.77752 14.0165 5.83538 18.0813 8.53833 21.1198C9.87891 22.6269 10.6172 24.5122 10.6172 26.4338V28.5432C10.6172 29.9182 11.499 31.0905 12.7266 31.5259V32.8323C12.7266 34.5769 14.146 35.9963 15.8906 35.9963H20.1094C21.854 35.9963 23.2734 34.5769 23.2734 32.8323V31.5259C24.501 31.0905 25.3828 29.9182 25.3828 28.5432V26.4338C25.3828 24.5368 26.143 22.6248 27.5233 21.0501C29.5436 18.7452 30.6562 15.7878 30.6562 12.7229C30.6562 8.87209 28.9372 5.26646 25.9398 2.8307ZM21.1641 32.8323C21.1641 33.4138 20.6909 33.887 20.1094 33.887H15.8906C15.3091 33.887 14.8359 33.4138 14.8359 32.8323V31.7073H21.1641V32.8323ZM23.2734 28.5432C23.2734 29.1248 22.8003 29.5979 22.2188 29.5979H13.7813C13.1997 29.5979 12.7266 29.1248 12.7266 28.5432V27.4885H23.2734V28.5432ZM18 17.9033C18.7122 17.9033 19.4243 17.7894 20.1094 17.5633V25.3792H15.8906V17.5633C16.5758 17.7894 17.2877 17.9033 18 17.9033ZM16.2369 15.4433L18 11.9172L19.7631 15.4433C18.6329 15.9083 17.3671 15.9083 16.2369 15.4433ZM25.937 19.6597C24.4705 21.3328 23.5665 23.3313 23.3336 25.3791H22.2188V15.8943C22.2188 15.8929 22.2188 15.8916 22.2188 15.8902C22.2188 15.7463 22.1876 15.5877 22.1174 15.4388C22.1138 15.431 22.1112 15.423 22.1074 15.4154L18.9433 9.08724C18.7646 8.72991 18.3994 8.50421 17.9999 8.50421C17.6004 8.50421 17.2353 8.72991 17.0565 9.08724L13.8925 15.4154C13.8227 15.5553 13.7812 15.7254 13.7812 15.8894C13.7812 15.8913 13.7812 15.8931 13.7812 15.895V25.3792H12.669C12.4429 23.3172 11.5557 21.3383 10.1144 19.7179C7.86178 17.1856 6.98154 13.7913 7.6995 10.4053C8.54691 6.40876 11.7672 3.16967 15.7128 2.34526C18.8901 1.68137 22.1328 2.45502 24.6095 4.46771C27.1118 6.50115 28.5469 9.51003 28.5469 12.7229C28.5469 15.2761 27.62 17.7396 25.937 19.6597Z" fill="white"/>
<path d="M3.16406 12.7236H1.05469C0.472219 12.7236 0 13.1959 0 13.7783C0 14.3608 0.472219 14.833 1.05469 14.833H3.16406C3.74653 14.833 4.21875 14.3608 4.21875 13.7783C4.21875 13.1959 3.74653 12.7236 3.16406 12.7236Z" fill="white"/>
<path d="M3.60091 7.44987L2.10937 5.95833C1.69748 5.54644 1.02972 5.54644 0.617832 5.95833C0.205942 6.37022 0.205942 7.03798 0.617832 7.44987L2.10937 8.94141C2.52133 9.35337 3.18909 9.35323 3.60091 8.94141C4.0128 8.52952 4.0128 7.86176 3.60091 7.44987Z" fill="white"/>
<path d="M3.60091 18.6146C3.18902 18.2027 2.52126 18.2027 2.10937 18.6146L0.617833 20.1061C0.206013 20.518 0.206013 21.1858 0.617833 21.5977C1.02965 22.0095 1.69741 22.0096 2.10937 21.5977L3.60091 20.1061C4.01273 19.6942 4.01273 19.0265 3.60091 18.6146Z" fill="white"/>
<path d="M34.9453 12.7236H32.8359C32.2535 12.7236 31.7812 13.1959 31.7812 13.7783C31.7812 14.3608 32.2535 14.833 32.8359 14.833H34.9453C35.5278 14.833 36 14.3608 36 13.7783C36 13.1959 35.5278 12.7236 34.9453 12.7236Z" fill="white"/>
<path d="M35.3822 5.95833C34.9703 5.54644 34.3025 5.54644 33.8906 5.95833L32.3991 7.44987C31.9872 7.86176 31.9872 8.52952 32.3991 8.94141C32.8109 9.3533 33.4787 9.3533 33.8906 8.94141L35.3822 7.44987C35.7941 7.03798 35.7941 6.37022 35.3822 5.95833Z" fill="white"/>
<path d="M35.3822 20.1061L33.8906 18.6146C33.4789 18.2027 32.811 18.2027 32.3991 18.6146C31.9871 19.0265 31.9872 19.6942 32.3991 20.1061L33.8906 21.5977C34.3024 22.0096 34.9703 22.0096 35.3822 21.5977C35.7941 21.1858 35.7941 20.518 35.3822 20.1061Z" fill="white"/>
</g>
<defs>
<clipPath id="clip0_330_630">
<rect width="36" height="36" fill="white"/>
</clipPath>
</defs>
</svg>
