<svg width="36" height="36" viewBox="0 0 36 36" fill="none" xmlns="http://www.w3.org/2000/svg">
<g clip-path="url(#clip0_330_657)">
<path d="M34.9781 8.58938C34.9104 8.58705 33.52 8.54011 31.479 8.58521V4.4006C31.479 3.78373 30.9523 3.29448 30.3321 3.34545C26.2626 3.68519 21.085 5.48342 18 8.76331C14.915 5.48342 9.73744 3.68519 5.66788 3.34545C5.04882 3.29505 4.52096 3.78211 4.52096 4.4006V8.69837C3.36134 8.6546 2.26447 8.62375 1.09024 8.58924C0.498 8.57053 0 9.04757 0 9.64757V28.9302C0 29.4874 0.431788 29.9492 0.987741 29.9866C5.1996 30.2701 12.2548 30.302 17.5847 32.5752C18.0596 32.7781 18.4861 32.5451 18.4155 32.5752C23.7452 30.302 30.7991 30.2702 35.0124 29.9866C35.5683 29.9492 36.0001 29.4874 36.0001 28.9302V9.64757C36 9.07714 35.5482 8.60928 34.9781 8.58938ZM29.3614 5.5915V23.7389C26.308 24.4219 22.4384 25.8794 19.0588 28.9698C19.0588 28.0377 19.0588 11.2737 19.0588 10.7696C21.3755 7.87898 25.763 6.13672 29.3614 5.5915ZM6.63861 5.5915C10.237 6.13672 14.6245 7.87898 16.9412 10.7696V28.9698C13.5616 25.8794 9.69198 24.4219 6.63861 23.7389V5.5915ZM2.11765 27.9338V10.738C2.87584 10.7605 3.68675 10.7858 4.52096 10.8176V24.6019C4.52096 25.1113 4.88379 25.5486 5.38447 25.6425C7.80219 26.0963 10.9462 27.0813 13.8764 29.2024C9.69586 28.2646 5.31995 28.1139 2.11765 27.9338ZM33.8824 27.9338C30.6853 28.1136 26.3058 28.2642 22.1235 29.2024C25.0537 27.0813 28.1978 26.0963 30.6155 25.6425C31.1161 25.5486 31.479 25.1113 31.479 24.6019V10.7036C32.4535 10.6818 33.2836 10.6815 33.8823 10.6869V27.9338H33.8824Z" fill="white"/>
<path d="M14.1958 13.2077C13.3757 12.6364 11.9619 11.9351 10.4531 11.6801C9.87673 11.5823 9.3301 11.9711 9.23261 12.5477C9.1352 13.1243 9.52365 13.6707 10.1003 13.7681C11.2652 13.965 12.3825 14.5252 12.9853 14.9452C13.4649 15.2794 14.1249 15.1617 14.4593 14.6817C14.7936 14.2019 14.6756 13.5419 14.1958 13.2077Z" fill="white"/>
<path d="M14.0898 19.1704C13.3353 18.7097 11.8595 17.9011 10.4531 17.6635C9.87673 17.5658 9.3301 17.9544 9.23261 18.5311C9.1352 19.1077 9.52365 19.6541 10.1003 19.7515C11.1959 19.9366 12.4833 20.6706 12.986 20.9777C13.4857 21.2827 14.1371 21.1244 14.4415 20.6259C14.7463 20.1269 14.5888 19.4753 14.0898 19.1704Z" fill="white"/>
<path d="M23.0147 14.9453C23.6176 14.5253 24.7348 13.965 25.8997 13.7682C26.4763 13.6708 26.8648 13.1243 26.7674 12.5478C26.67 11.9711 26.1234 11.5821 25.5469 11.6802C24.0381 11.9351 22.6243 12.6364 21.8042 13.2078C21.3244 13.542 21.2065 14.202 21.5407 14.6818C21.8752 15.1619 22.5354 15.2793 23.0147 14.9453Z" fill="white"/>
<path d="M25.5469 17.6636C24.1405 17.9012 22.6647 18.7097 21.9102 19.1705C21.4111 19.4753 21.2536 20.1269 21.5584 20.626C21.8632 21.125 22.5148 21.2825 23.014 20.9777C23.5166 20.6707 24.8041 19.9367 25.8997 19.7516C26.4762 19.6541 26.8647 19.1078 26.7673 18.5312C26.6699 17.9545 26.1233 17.5655 25.5469 17.6636Z" fill="white"/>
</g>
<defs>
<clipPath id="clip0_330_657">
<rect width="36" height="36" fill="white"/>
</clipPath>
</defs>
</svg>
