<svg width="24" height="29" viewBox="0 0 24 29" fill="none" xmlns="http://www.w3.org/2000/svg">
<path fill-rule="evenodd" clip-rule="evenodd" d="M14.6765 17.1106C13.65 17.1106 12.8169 17.9437 12.8169 18.9713V26.5335H20.3246V24.5448C20.3246 24.0937 20.6903 23.728 21.1414 23.728C21.5925 23.728 21.9582 24.0937 21.9582 24.5448V27.3504C21.9582 27.8015 21.5925 28.1672 21.1414 28.1672H12C11.5489 28.1672 11.1832 27.8015 11.1832 27.3504V18.9713C11.1832 17.0421 12.7471 15.4769 14.6765 15.4769H21.1414C21.5925 15.4769 21.9582 15.8427 21.9582 16.2938V20.733C21.9582 21.1841 21.5925 21.5498 21.1414 21.5498C20.6903 21.5498 20.3246 21.1841 20.3246 20.733V17.1106H14.6765Z" fill="black"/>
<path fill-rule="evenodd" clip-rule="evenodd" d="M2.04181 16.2938C2.04181 15.8427 2.40752 15.4769 2.85864 15.4769H9.32356C11.2529 15.4769 12.8169 17.0421 12.8169 18.9713V27.3504C12.8169 27.8015 12.4511 28.1672 12 28.1672H2.85864C2.40752 28.1672 2.04181 27.8015 2.04181 27.3504V24.5416C2.04181 24.0904 2.40752 23.7247 2.85864 23.7247C3.30976 23.7247 3.67547 24.0904 3.67547 24.5416V26.5335H11.1832V18.9713C11.1832 17.9437 10.35 17.1106 9.32356 17.1106H3.67547V20.7362C3.67547 21.1874 3.30976 21.5531 2.85864 21.5531C2.40752 21.5531 2.04181 21.1874 2.04181 20.7362V16.2938Z" fill="black"/>
<path fill-rule="evenodd" clip-rule="evenodd" d="M21.2504 21.5498C20.6489 21.5498 20.1613 22.0375 20.1613 22.6389C20.1613 23.2404 20.6489 23.7281 21.2504 23.7281H21.4202C21.6272 23.7281 21.795 23.5602 21.795 23.3533V21.9246C21.795 21.7176 21.6272 21.5498 21.4202 21.5498H21.2504ZM18.5277 22.6389C18.5277 21.1352 19.7467 19.9162 21.2504 19.9162H21.4202C22.5294 19.9162 23.4286 20.8154 23.4286 21.9246V23.3533C23.4286 24.4625 22.5294 25.3617 21.4202 25.3617H21.2504C19.7467 25.3617 18.5277 24.1427 18.5277 22.6389Z" fill="black"/>
<path fill-rule="evenodd" clip-rule="evenodd" d="M0.571411 21.9246C0.571411 20.8154 1.47061 19.9162 2.57983 19.9162H2.74962C4.25336 19.9162 5.47238 21.1352 5.47238 22.6389C5.47238 24.1427 4.25336 25.3617 2.74962 25.3617H2.57983C1.47064 25.3617 0.571411 24.4625 0.571411 23.3533V21.9246ZM2.57983 21.5498C2.37286 21.5498 2.20507 21.7176 2.20507 21.9246V23.3533C2.20507 23.5602 2.37283 23.7281 2.57983 23.7281H2.74962C3.35112 23.7281 3.83872 23.2404 3.83872 22.6389C3.83872 22.0375 3.35112 21.5498 2.74962 21.5498H2.57983Z" fill="black"/>
<path fill-rule="evenodd" clip-rule="evenodd" d="M9.71986 12.3469C9.72797 12.7979 9.3689 13.1702 8.91785 13.1783C7.01462 13.2125 5.44163 14.607 5.13322 16.43C5.05797 16.8748 4.63639 17.1744 4.19159 17.0992C3.74678 17.0239 3.4472 16.6023 3.52245 16.1575C3.96008 13.5707 6.18806 11.5934 8.88848 11.5449C9.33953 11.5368 9.71175 11.8958 9.71986 12.3469Z" fill="black"/>
<path fill-rule="evenodd" clip-rule="evenodd" d="M14.2802 12.3469C14.2883 11.8958 14.6605 11.5368 15.1116 11.5449C17.812 11.5934 20.04 13.5707 20.4776 16.1575C20.5529 16.6023 20.2533 17.0239 19.8085 17.0992C19.3637 17.1744 18.9421 16.8748 18.8668 16.43C18.5584 14.607 16.9854 13.2125 15.0822 13.1783C14.6312 13.1702 14.2721 12.7979 14.2802 12.3469Z" fill="black"/>
<path fill-rule="evenodd" clip-rule="evenodd" d="M12 1.91979C9.67372 1.91979 7.78748 3.80602 7.78748 6.13233V8.39837C7.78748 9.56145 8.25797 10.614 9.02094 11.3771C9.78489 12.1405 10.8364 12.6109 12 12.6109C14.3263 12.6109 16.2126 10.7247 16.2126 8.39837V6.13233C16.2126 3.80602 14.3263 1.91979 12 1.91979ZM6.15383 6.13233C6.15383 2.90378 8.77147 0.286133 12 0.286133C15.2286 0.286133 17.8462 2.90378 17.8462 6.13233V8.39837C17.8462 11.6269 15.2286 14.2446 12 14.2446C10.3856 14.2446 8.92365 13.5893 7.86618 12.5326L7.86598 12.5324C6.80885 11.4753 6.15383 10.012 6.15383 8.39837V6.13233Z" fill="black"/>
<path fill-rule="evenodd" clip-rule="evenodd" d="M12.3411 7.83138C12.751 8.01973 12.9306 8.50472 12.7423 8.91464L12 8.57361C12.7423 8.91464 12.7421 8.915 12.7419 8.91537L12.7416 8.91612L12.7409 8.91767L12.7393 8.92102C12.7382 8.92335 12.737 8.9259 12.7357 8.92865C12.733 8.93416 12.73 8.94048 12.7264 8.9476C12.7193 8.96181 12.7104 8.97919 12.6994 8.99938C12.6776 9.03973 12.6476 9.09153 12.6087 9.15204C12.5309 9.27289 12.4162 9.4298 12.2565 9.59993C11.9351 9.94242 11.4351 10.334 10.7025 10.5904C10.2767 10.7394 9.81073 10.515 9.66172 10.0892C9.51271 9.66345 9.73709 9.19747 10.1629 9.04846C10.6158 8.88994 10.8995 8.65865 11.0653 8.48195C11.1493 8.39249 11.2042 8.31573 11.235 8.26782C11.2504 8.24394 11.2596 8.22758 11.2632 8.22087C11.2635 8.22024 11.2638 8.21969 11.2641 8.21924C11.4567 7.81878 11.9356 7.64509 12.3411 7.83138Z" fill="black"/>
<path fill-rule="evenodd" clip-rule="evenodd" d="M12.736 8.21924C12.5433 7.81878 12.0644 7.64509 11.659 7.83138C11.2491 8.01973 11.0695 8.50472 11.2578 8.91464L12 8.57361C11.2578 8.91464 11.258 8.915 11.2581 8.91537L11.2585 8.91612L11.2592 8.91767L11.2608 8.92102C11.2619 8.92335 11.2631 8.9259 11.2644 8.92865C11.267 8.93416 11.2701 8.94048 11.2736 8.9476C11.2807 8.96181 11.2897 8.97919 11.3006 8.99938C11.3225 9.03973 11.3524 9.09153 11.3914 9.15204C11.4692 9.27289 11.5838 9.4298 11.7435 9.59993C12.065 9.94242 12.565 10.334 13.2975 10.5904C13.7233 10.7394 14.1893 10.515 14.3383 10.0892C14.4873 9.66345 14.263 9.19747 13.8372 9.04846C13.3842 8.88994 13.1005 8.65865 12.9347 8.48195C12.8507 8.39249 12.7959 8.31573 12.765 8.26782C12.7497 8.24394 12.7405 8.22758 12.7369 8.22087C12.7365 8.22024 12.7362 8.21969 12.736 8.21924Z" fill="black"/>
<path fill-rule="evenodd" clip-rule="evenodd" d="M8.71728 1.40865C9.15085 1.28404 9.60335 1.5345 9.72796 1.96807C10.0118 2.95557 10.9227 3.67706 12 3.67706C13.0774 3.67706 13.9883 2.95557 14.2721 1.96807C14.3967 1.5345 14.8492 1.28404 15.2828 1.40865C15.7163 1.53326 15.9668 1.98576 15.8422 2.41933C15.3625 4.08815 13.8252 5.31071 12 5.31071C10.1749 5.31071 8.63751 4.08815 8.15787 2.41933C8.03325 1.98576 8.28371 1.53326 8.71728 1.40865Z" fill="black"/>
</svg>
